<mxfile host="app.diagrams.net" modified="2023-08-03T06:00:01.072Z" agent="Mozilla/5.0 (Windows NT 10.0; Win64; x64) AppleWebKit/537.36 (KHTML, like Gecko) Chrome/115.0.0.0 Safari/537.36" version="21.6.5" etag="G9N2LwMq_yqTy5ewQS7j" type="github">
  <diagram name="Page-1" id="KQo3LpQoSCAmQK8x_zan">
    <mxGraphModel>
      <root>
        <mxCell id="0" />
        <mxCell id="1" parent="0" />
      </root>
    </mxGraphModel>
  </diagram>
</mxfile>
